# xmcd
#
# Track frame offsets: 
#        150
#        12625
#        22832
#        36705
#        49002
#        62297
#        75680
#        88280
#        103335
#        117410
#        132577
#        144150
#        158667
#        169907
#        183715
#        199395
#
# Disc length: 2840 seconds
#
# Revision: 1
# Processed by: cddbd v1.5.1PL0 Copyright (c) Steve Scherf et al.
# Submitted via: ExactAudioCopy v0.95a5
#
DISCID=e60b1610
DTITLE=John Lee Hooker - The Complete 50's Chess Recordings, Disc 1
DYEAR=1900
DGENRE=Blues
TTITLE0=Mad Man Blues
TTITLE1=Hey Boogie
TTITLE2=Louise
TTITLE3=High Priced Woman
TTITLE4=Union Station Blues
TTITLE5=Ground Hog Blues
TTITLE6=Leave My Wife Alone
TTITLE7=Rambin' By Myself
TTITLE8=Dreamin' Blues
TTITLE9=Just Me And My Telephone
TTITLE10=Walkin' The Boogie (alternate)
TTITLE11=Sugar Mama
TTITLE12=Please Don't Go
TTITLE13=I Don't Want Your Money
TTITLE14=Hey Baby
TTITLE15=Bluebird
EXTD=
EXTT0=
EXTT1=
EXTT2=
EXTT3=
EXTT4=
EXTT5=
EXTT6=
EXTT7=
EXTT8=
EXTT9=
EXTT10=
EXTT11=
EXTT12=
EXTT13=
EXTT14=
EXTT15=
PLAYORDER=
